<svg id="Ebene_1" data-name="Ebene 1" xmlns="http://www.w3.org/2000/svg" viewBox="0 0 120 120"><polygon points="54.5 95.5 46.5 95.5 46.5 23.5 54.5 31.5 54.5 95.5" style="fill:#1e3769;stroke:#fff;stroke-linecap:round;stroke-linejoin:round"/><polygon points="91.5 39.5 99.5 47.5 28.5 47.5 28.5 39.5 91.5 39.5" style="fill:#1e3769;stroke:#fff;stroke-linecap:round;stroke-linejoin:round"/><rect x="37.5" y="88.5" width="26" height="9" rx="3.56" style="fill:#1e3769;stroke:#fff;stroke-linecap:round;stroke-linejoin:round"/><polyline points="34.81 38.1 46.5 23.5 91.5 39.5" style="fill:none;stroke:#fff;stroke-linecap:round;stroke-linejoin:round"/><line x1="46.5" y1="87.37" x2="54.5" y2="79.15" style="fill:#1e3769;stroke:#fff;stroke-linecap:round;stroke-linejoin:round"/><line x1="54.5" y1="79.37" x2="46.5" y2="71.15" style="fill:#1e3769;stroke:#fff;stroke-linecap:round;stroke-linejoin:round"/><line x1="91.61" y1="39.26" x2="83.39" y2="47.26" style="fill:#1e3769;stroke:#fff;stroke-linecap:round;stroke-linejoin:round"/><line x1="83.61" y1="47.26" x2="75.39" y2="39.26" style="fill:#1e3769;stroke:#fff;stroke-linecap:round;stroke-linejoin:round"/><line x1="75.61" y1="39.26" x2="67.39" y2="47.26" style="fill:#1e3769;stroke:#fff;stroke-linecap:round;stroke-linejoin:round"/><line x1="67.61" y1="47.26" x2="59.39" y2="39.26" style="fill:#1e3769;stroke:#fff;stroke-linecap:round;stroke-linejoin:round"/><line x1="59.61" y1="39.26" x2="51.39" y2="47.26" style="fill:#1e3769;stroke:#fff;stroke-linecap:round;stroke-linejoin:round"/><line x1="50.61" y1="47.26" x2="42.39" y2="39.26" style="fill:#1e3769;stroke:#fff;stroke-linecap:round;stroke-linejoin:round"/><line x1="42.61" y1="39.26" x2="34.39" y2="47.26" style="fill:#1e3769;stroke:#fff;stroke-linecap:round;stroke-linejoin:round"/><line x1="46.5" y1="71.37" x2="54.5" y2="63.15" style="fill:#1e3769;stroke:#fff;stroke-linecap:round;stroke-linejoin:round"/><line x1="54.5" y1="63.37" x2="46.5" y2="55.15" style="fill:#1e3769;stroke:#fff;stroke-linecap:round;stroke-linejoin:round"/><line x1="46.5" y1="55.37" x2="54.5" y2="47.5" style="fill:#1e3769;stroke:#fff;stroke-linecap:round;stroke-linejoin:round"/><line x1="46.5" y1="39.37" x2="54.5" y2="31.15" style="fill:#1e3769;stroke:#fff;stroke-linecap:round;stroke-linejoin:round"/><line x1="54.5" y1="31.37" x2="46.5" y2="23.15" style="fill:#1e3769;stroke:#fff;stroke-linecap:round;stroke-linejoin:round"/><rect x="23" y="37" width="13" height="13" rx="3.89" style="fill:#1e3769;stroke:#fff;stroke-linecap:round;stroke-linejoin:round"/><path d="M82,64.5A3.5,3.5,0,1,0,85.5,61V47.5" style="fill:#1e3769;stroke:#fff;stroke-linecap:round;stroke-linejoin:round"/></svg>