<svg id="Ebene_1" data-name="Ebene 1" xmlns="http://www.w3.org/2000/svg" viewBox="0 0 120 120"><path d="M72.07,51.56V36.47H62A24.76,24.76,0,0,0,60.22,32l7.07-7.07L56.62,14.26,49.7,21.17a24.85,24.85,0,0,0-4.62-2V9.48H30v9.73a24.89,24.89,0,0,0-4.62,2l-6.92-6.92L7.78,24.93,14.84,32a25.62,25.62,0,0,0-1.77,4.48H3V51.56H13.36a24.71,24.71,0,0,0,1.81,4.14L7.78,63.1,18.45,73.77,26,66.24a25.51,25.51,0,0,0,4,1.63V78.55H45.08V67.88a25.55,25.55,0,0,0,4-1.64l7.53,7.53L67.29,63.1l-7.38-7.39a26,26,0,0,0,1.8-4.15Z" style="fill:none;stroke:#fff;stroke-linecap:round;stroke-linejoin:round;stroke-width:3px"/><circle cx="37.06" cy="44.02" r="11.79" style="fill:none;stroke:#fff;stroke-linecap:round;stroke-linejoin:round;stroke-width:3px"/><path d="M117,85.34v-6.2h-6.12a19.6,19.6,0,0,0-3.64-8.59l4.39-4.39-4.39-4.38-4.42,4.42a19.44,19.44,0,0,0-8.56-3.39V56.4h-6.2v6.52A19.48,19.48,0,0,0,79.8,66.5l-4.71-4.72L70.7,66.16l4.78,4.78a19.54,19.54,0,0,0-3.34,8.2H65.33v6.2h6.79a19.6,19.6,0,0,0,3.35,8.21L70.7,98.32l4.39,4.38L79.81,98a19.51,19.51,0,0,0,8.25,3.58v6.52h6.2v-6.42a19.38,19.38,0,0,0,8.54-3.4l4.44,4.44,4.39-4.38L107.26,94a19.43,19.43,0,0,0,3.63-8.61Z" style="fill:none;stroke:#fff;stroke-linecap:round;stroke-linejoin:round;stroke-width:3px"/><circle cx="91.16" cy="82.24" r="9.3" style="fill:none;stroke:#fff;stroke-linecap:round;stroke-linejoin:round;stroke-width:3px"/></svg>