<svg id="Ebene_1" data-name="Ebene 1" xmlns="http://www.w3.org/2000/svg" viewBox="0 0 120 120"><path d="M39.5,41.5H67.1A13.4,13.4,0,0,1,80.5,54.9V68.39H68.25V58.09a5,5,0,0,0-5-5H39.5Z" style="fill:#1e3769;stroke:#fff;stroke-linecap:round;stroke-linejoin:round"/><rect x="67.5" y="68.5" width="14" height="3" rx="0.01" style="fill:#1e3769;stroke:#fff;stroke-linecap:round;stroke-linejoin:round"/><rect x="28" y="46" width="20" height="3" rx="0.01" transform="translate(-9.5 85.5) rotate(-90)" style="fill:#1e3769;stroke:#fff;stroke-linecap:round;stroke-linejoin:round"/><rect x="52.5" y="36.5" width="3" height="5" rx="0.01" style="fill:#1e3769;stroke:#fff;stroke-linecap:round;stroke-linejoin:round"/><line x1="47.59" y1="36.5" x2="60" y2="36.5" style="fill:#1e3769;stroke:#fff;stroke-linecap:round;stroke-linejoin:round"/><path d="M79,84.67a4,4,0,1,1-8,0C71,82.46,75,76,75,76S79,82.46,79,84.67Z" style="fill:#1e3769;stroke:#fff;stroke-linecap:round;stroke-linejoin:round"/></svg>