<svg id="Ebene_1" data-name="Ebene 1" xmlns="http://www.w3.org/2000/svg" viewBox="0 0 120 120"><rect x="29.82" y="38.12" width="60.02" height="46.88" style="fill:#1e3769;stroke:#fff;stroke-linecap:round;stroke-linejoin:round"/><rect x="37.91" y="61.96" width="16.17" height="23.04" style="fill:#1e3769;stroke:#fff;stroke-linecap:round;stroke-linejoin:round"/><rect x="59.73" y="61.96" width="25.06" height="23.04" style="fill:#1e3769;stroke:#fff;stroke-linecap:round;stroke-linejoin:round"/><path d="M24.11,39.19H34.29A7.11,7.11,0,0,1,41.4,46.3v0a7.11,7.11,0,0,1-7.11,7.11H24.11A2.32,2.32,0,0,1,21.8,51.1V41.51A2.32,2.32,0,0,1,24.11,39.19Z" transform="translate(77.9 14.7) rotate(90)" style="fill:#1e3769;stroke:#fff;stroke-linecap:round;stroke-linejoin:round"/><path d="M38.66,39.19H48.84A7.11,7.11,0,0,1,56,46.3v0a7.11,7.11,0,0,1-7.11,7.11H38.66a2.32,2.32,0,0,1-2.32-2.32V41.51a2.32,2.32,0,0,1,2.32-2.32Z" transform="translate(92.45 0.15) rotate(90)" style="fill:#1e3769;stroke:#fff;stroke-linecap:round;stroke-linejoin:round"/><path d="M53.21,39.19H63.39A7.11,7.11,0,0,1,70.5,46.3v0a7.11,7.11,0,0,1-7.11,7.11H53.21A2.32,2.32,0,0,1,50.9,51.1V41.51A2.32,2.32,0,0,1,53.21,39.19Z" transform="translate(107 -14.4) rotate(90)" style="fill:#1e3769;stroke:#fff;stroke-linecap:round;stroke-linejoin:round"/><path d="M67.76,39.19H77.94a7.11,7.11,0,0,1,7.11,7.11v0a7.11,7.11,0,0,1-7.11,7.11H67.76a2.32,2.32,0,0,1-2.32-2.32V41.51a2.32,2.32,0,0,1,2.32-2.32Z" transform="translate(121.55 -28.95) rotate(90)" style="fill:#1e3769;stroke:#fff;stroke-linecap:round;stroke-linejoin:round"/><path d="M82.31,39.19H92.49A7.11,7.11,0,0,1,99.6,46.3v0a7.11,7.11,0,0,1-7.11,7.11H82.31A2.32,2.32,0,0,1,80,51.1V41.51a2.32,2.32,0,0,1,2.32-2.32Z" transform="translate(136.1 -43.5) rotate(90)" style="fill:#1e3769;stroke:#fff;stroke-linecap:round;stroke-linejoin:round"/><circle cx="40.73" cy="74.09" r="0.81" style="fill:#1e3769;stroke:#fff;stroke-linecap:round;stroke-linejoin:round"/></svg>