<svg id="Ebene_1" data-name="Ebene 1" xmlns="http://www.w3.org/2000/svg" viewBox="0 0 120 120"><path d="M78.76,82.71c-.8,1.19-2.68,1.91-5.15,1.91-3.29,0-5.76-4.12-10.13-4.12A7.69,7.69,0,0,0,58,83" style="fill:none;stroke:#87b5d3;stroke-linecap:round;stroke-linejoin:round"/><path d="M78.76,87c-.8,1.19-2.68,1.91-5.15,1.91-3.29,0-5.76-4.12-10.13-4.12A7.69,7.69,0,0,0,58,87.33" style="fill:none;stroke:#87b5d3;stroke-linecap:round;stroke-linejoin:round"/><rect x="31.5" y="18.5" width="60" height="83" rx="7.73" style="fill:none;stroke:#1e3769;stroke-linecap:round;stroke-linejoin:round"/><path d="M44,23.32a7.73,7.73,0,0,1-7.73,7.73" style="fill:none;stroke:#1e3769;stroke-linecap:round;stroke-linejoin:round"/><path d="M48.53,23.32a12.29,12.29,0,0,1-12.3,12.3" style="fill:none;stroke:#1e3769;stroke-linecap:round;stroke-linejoin:round"/><path d="M53.53,23.82a16.8,16.8,0,0,1-16.8,16.8" style="fill:none;stroke:#1e3769;stroke-linecap:round;stroke-linejoin:round"/><path d="M87.5,28.66V90.84a6.66,6.66,0,0,1-6.66,6.66H41.47" style="fill:none;stroke:#87b5d3;stroke-linecap:round;stroke-linejoin:round"/></svg>