<svg id="Ebene_1" data-name="Ebene 1" xmlns="http://www.w3.org/2000/svg" viewBox="0 0 120 120"><path d="M68,54.05v-9.2H61.86a16.16,16.16,0,0,0-1.08-2.73l4.31-4.31-6.51-6.5-4.21,4.21a16.37,16.37,0,0,0-2.82-1.2V28.39h-9.2v5.93a15.36,15.36,0,0,0-2.82,1.21l-4.22-4.22-6.5,6.5,4.3,4.31A15,15,0,0,0,32,44.85H25.89v9.2h6.32a15.75,15.75,0,0,0,1.1,2.52l-4.5,4.51,6.5,6.51L39.9,63a15.89,15.89,0,0,0,2.45,1V70.5h9.2V64A15.77,15.77,0,0,0,54,63l4.59,4.59,6.51-6.51-4.51-4.5a15,15,0,0,0,1.1-2.53Z" style="fill:#1e3769;stroke:#fff;stroke-linecap:round;stroke-linejoin:round"/><circle cx="46.66" cy="49.45" r="7.19" style="fill:#1e3769;stroke:#fff;stroke-linecap:round;stroke-linejoin:round"/><path d="M96,74.64V70.86H92.27a12,12,0,0,0-2.22-5.24L92.72,63l-2.67-2.67L87.35,63a12,12,0,0,0-5.21-2.07V57H78.36v4a11.8,11.8,0,0,0-5,2.18l-2.88-2.87L67.78,63l2.91,2.91a12,12,0,0,0-2,5H64.5v3.78h4.14a11.88,11.88,0,0,0,2,5l-2.9,2.91,2.67,2.67,2.88-2.87a12,12,0,0,0,5,2.18v4h3.78V84.59a11.92,11.92,0,0,0,5.21-2.07l2.7,2.7,2.67-2.67-2.66-2.66a11.91,11.91,0,0,0,2.22-5.25Z" style="fill:#1e3769;stroke:#fff;stroke-linecap:round;stroke-linejoin:round"/><circle cx="80.25" cy="72.75" r="5.67" style="fill:#1e3769;stroke:#fff;stroke-linecap:round;stroke-linejoin:round"/></svg>