<svg id="Ebene_1" data-name="Ebene 1" xmlns="http://www.w3.org/2000/svg" viewBox="0 0 120 120"><path d="M38,75.73c2.53-1.85,8.68-5,13.2-7.16a9.14,9.14,0,0,0,5.13-8.45l-.2-8.42h7.72v8.63a9.15,9.15,0,0,0,5.07,8.19c4.44,2.2,10.56,5.36,13.06,7.21C88.81,80.79,83.74,92,75.25,92H44.75C36.26,92,31.18,80.76,38,75.73Z" style="fill:#1e3769;stroke:#fff;stroke-linecap:round;stroke-linejoin:round"/><rect x="53.93" y="48.39" width="12.14" height="3.31" rx="0.01" style="fill:#1e3769;stroke:#fff;stroke-linecap:round;stroke-linejoin:round"/><path d="M35.16,79.71S39.89,76,41.78,76s4.61,3.59,6.63,3.31c1.65-.23,3.85-3.37,5.52-3.31s4,3,5.52,3.31,3.94-2.16,5.52-2.2c1.83-.06,3.72,2.53,5.52,2.2,1.38-.25,4.12-2.17,5.52-2.2,1.77,0,2.65,2.17,4.41,2.2,1.1,0,3.52-1.51,3.52-1.51" style="fill:#1e3769;stroke:#fff;stroke-linecap:round;stroke-linejoin:round"/><circle cx="55.03" cy="38.46" r="3.31" style="fill:none;stroke:#fff;stroke-linecap:round;stroke-linejoin:round"/><circle cx="64.97" cy="31.83" r="2.21" style="fill:none;stroke:#fff;stroke-linecap:round;stroke-linejoin:round"/><circle cx="57.24" cy="24.1" r="1.1" style="fill:none;stroke:#fff;stroke-linecap:round;stroke-linejoin:round"/></svg>