<?xml version="1.0" encoding="utf-8"?>
<!-- Generator: Adobe Illustrator 25.2.1, SVG Export Plug-In . SVG Version: 6.00 Build 0)  -->
<svg version="1.1" id="hexa" xmlns="http://www.w3.org/2000/svg" xmlns:xlink="http://www.w3.org/1999/xlink" x="0px" y="0px"
	 viewBox="0 0 483 483" style="enable-background:new 0 0 483 483;" xml:space="preserve">
<style type="text/css">
	.st0{fill:#7AB6D6;}
</style>
<path class="st0" d="M283.9,241.5L474.2,51.2c11.7-11.7,11.7-30.7,0-42.4c-11.7-11.7-30.7-11.7-42.4,0L241.5,199.1L51.2,8.8
	C39.5-2.9,20.5-2.9,8.8,8.8c-11.7,11.7-11.7,30.7,0,42.4l190.3,190.3L8.8,431.8c-11.7,11.7-11.7,30.7,0,42.4
	c5.9,5.9,13.5,8.8,21.2,8.8s15.4-2.9,21.2-8.8l190.3-190.3l190.3,190.3c5.9,5.9,13.5,8.8,21.2,8.8s15.4-2.9,21.2-8.8
	c11.7-11.7,11.7-30.7,0-42.4L283.9,241.5z"/>
</svg>
